<svg xmlns="http://www.w3.org/2000/svg" version="1.1" xmlns:xlink="http://www.w3.org/1999/xlink" xmlns:svgjs="http://svgjs.dev/svgjs" width="2560" height="1440" preserveAspectRatio="none" viewBox="0 0 2560 1440">
    <g mask="url(&quot;#SvgjsMask1026&quot;)" fill="none">
        <rect width="2560" height="1440" x="0" y="0" fill="rgba(25, 25, 25, 1)"></rect>
        <path d="M0,935.984C173.517,933.237,239.689,693.37,391.057,608.497C557.677,515.073,799.301,568.215,919.987,420.144C1042.709,269.575,1030.723,48.04,1004.761,-144.463C978.651,-338.064,912.553,-533.105,772.992,-669.801C637.97,-802.051,439.256,-825.158,257.367,-876.512C77.475,-927.302,-99.977,-999.251,-284.325,-968.321C-481.359,-935.263,-669.742,-844.536,-805.706,-698.149C-944.09,-549.157,-1053.806,-353.26,-1044.252,-150.141C-1035.091,44.622,-881.728,195.991,-756.616,345.535C-658.084,463.309,-520.153,526.536,-399.096,621.006C-262.729,727.424,-172.954,938.722,0,935.984" fill="#141414"></path>
        <path d="M2560 2713.6400000000003C2799.912 2710.056 2896.927 2392.018 3056.897 2213.187 3172.641 2083.7960000000003 3277.941 1957.2849999999999 3368.871 1809.399 3472.732 1640.482 3657.1679999999997 1482.569 3626.5950000000003 1286.647 3595.993 1090.536 3336.701 1028.4 3221.749 866.592 3088.402 678.892 3111.869 367.7449999999999 2903.7780000000002 269.20000000000005 2700.413 172.89300000000003 2460.841 313.501 2257.56 409.9849999999999 2076.993 495.688 1937.894 636.487 1808.674 788.972 1680.7559999999999 939.921 1564.806 1098.592 1512.343 1289.37 1454.902 1498.251 1387.838 1738.214 1496.022 1925.903 1603.761 2112.821 1880.076 2099.799 2053.4700000000003 2228.175 2245.316 2370.212 2321.324 2717.205 2560 2713.6400000000003" fill="#1e1e1e"></path>
    </g>
    <defs>
        <mask id="SvgjsMask1026">
            <rect width="2560" height="1440" fill="#ffffff"></rect>
        </mask>
    </defs>
</svg>
