<svg id="hyperlink_link_internet_symbol_website_chain_network_connection_communication_linked_url" viewBox="0 0 32 32" xmlns="http://www.w3.org/2000/svg"><path d="m13.17 18.83c-.94-.94.48-2.35 1.42-1.41 1.56 1.56 4.09 1.56 5.66 0l6.36-6.36c1.56-1.56 1.58-4.08 0-5.66s-4.09-1.56-5.66 0l-3.54 3.54c-.94.94-2.35-.48-1.41-1.41l3.54-3.54c2.34-2.34 6.14-2.34 8.49 0s2.34 6.14 0 8.49l-6.36 6.36c-2.34 2.34-6.14 2.34-8.49 0z"/><path d="m3.98 28.02c-2.35-2.35-2.34-6.14 0-8.49l6.36-6.36c2.34-2.34 6.14-2.34 8.49 0 .94.94-.48 2.35-1.42 1.41-1.56-1.56-4.09-1.56-5.66 0l-6.36 6.36c-1.56 1.56-1.58 4.08 0 5.66s4.09 1.56 5.66 0l3.54-3.54c.94-.94 2.35.48 1.41 1.41l-3.54 3.54c-2.34 2.34-6.14 2.34-8.49 0z"/></svg>