<svg xmlns="http://www.w3.org/2000/svg" version="1.1" xmlns:xlink="http://www.w3.org/1999/xlink" xmlns:svgjs="http://svgjs.dev/svgjs" width="1440" height="560" preserveAspectRatio="none" viewBox="0 0 1440 560">
    <g mask="url(&quot;#SvgjsMask1677&quot;)" fill="none">
        <rect width="1440" height="560" x="0" y="0" fill="url(&quot;#SvgjsRadialGradient1678&quot;)"></rect>
        <path d="M280 136.67C278.44 138.51 276.5 138.1 276.5 140C276.5 142.68 276.68 145.73 280 145.83C348.43 147.85 350.48 146.97 420 144.24C424.6 144.06 427.36 144.43 428.24 140C441.68 72.31 411.78 39.17 448.64 0C477.66 -30.83 504.32 0 560 0C630 0 630 0 700 0C752.1 0 754.1 -7.45 804.19 0C824.1 2.96 820.02 20.13 840 20.81C907.92 23.11 910.63 2.03 980 5.96C1050.63 9.96 1049.38 25.14 1120 36.67C1189.38 48 1190 51.71 1260 51.69C1330 51.67 1329.99 44.03 1400 36.59C1469.99 29.15 1501.93 -6.19 1540 21.93C1571.93 45.52 1540 80.97 1540 140C1540 210 1540 210 1540 280C1540 301.73 1544.52 302.41 1540 323.45C1529.47 372.41 1509.89 371.73 1509.89 420C1509.89 468.27 1529.47 467.59 1540 516.55C1544.52 537.59 1556.58 554.85 1540 560C1486.58 576.58 1470 560 1400 560C1330 560 1330 560 1260 560C1190 560 1190 560 1120 560C1103.03 560 1102.31 564.28 1086.06 560C1032.31 545.86 1033.38 523.16 980 523.16C920.01 523.16 920.02 544.02 859.31 560C850.02 562.44 849.65 560 840 560C816.66 560 816 564.53 793.33 560C746 550.53 747.86 538.8 700 532C631.19 522.22 626.84 517.23 560 526.84C529.45 531.23 535.25 552.89 505.22 560C465.25 569.47 462.61 560 420 560C388.38 560 375.83 580.18 356.77 560C309.72 510.18 323.91 488.64 287.78 420C285.53 415.72 283.13 414.17 280 414.17C277.95 414.17 278.03 416.88 277.41 420C263.52 489.79 289.6 520.65 250.98 560C220.9 590.65 195.49 560 140 560C70 560 42.35 587.65 0 560C-27.65 541.95 -13.01 509.22 0 468.61C9.42 439.22 44.87 442.93 44.87 420C44.87 399.61 8.21 407.57 0 381.96C-14.23 337.57 0 330.98 0 280C0 210 0 210 0 140C0 70 -35 35 0 0C35 -35 70 0 140 0C210 0 210 0 280 0C337.4 0 394.8 -26.75 394.8 0C394.8 41.59 337.59 68.51 280 136.67" stroke="rgba(82, 31, 22, 1)" stroke-width="2"></path>
        <path d="M560 268C556.53 268 553.73 273.94 553.73 280C553.73 286.51 556.52 293.13 560 293.13C563.69 293.13 568.08 286.48 568.08 280C568.08 273.92 563.71 268 560 268" stroke="rgba(82, 31, 22, 1)" stroke-width="2"></path>
        <path d="M1120 267.65C1113.42 268.78 1113.64 273.23 1113.64 280C1113.64 309.4 1098.44 336.43 1120 340C1171.62 348.55 1189.03 310.12 1260 304.23C1329.03 298.5 1331.64 323.56 1400 316.77C1453.64 311.44 1504 299.1 1504 280C1504 260.71 1453.9 245.57 1400 240C1331.9 232.97 1330.05 247.88 1260 254.8C1190.05 261.71 1186.6 256.18 1120 267.65" stroke="rgba(82, 31, 22, 1)" stroke-width="2"></path>
        <path d="M64.62 140C104.89 113.44 105.59 78.75 140 78.75C167.78 78.75 189 106.53 189 140C189 188.73 163.7 191.23 140 243.16C131.75 261.23 125.11 262.43 125.11 280C125.11 291.46 133.14 290.22 140 301.21C176.88 360.22 195.57 355.5 212.59 420C229.71 484.9 232.69 512.94 208.29 560C196.39 582.94 174.14 560 140 560C70 560 53.62 576.38 0 560C-16.38 554.99 -10.96 534.32 0 517.22C33.91 464.32 89.74 465.87 89.74 420C89.74 379.21 29.08 389.27 0 343.91C-15.79 319.27 0 311.96 0 280C0 225.56 -19.48 213.31 0 171.11C12.83 143.31 34.89 159.62 64.62 140" stroke="rgba(82, 31, 22, 1)" stroke-width="2"></path>
        <path d="M280 53.33C249.62 53.33 214.12 15 214.12 0C214.12 -11.66 247.06 0 280 0C302.4 0 324.8 -10.44 324.8 0C324.8 16.23 304.96 53.33 280 53.33" stroke="rgba(82, 31, 22, 1)" stroke-width="2"></path>
        <path d="M531.18 140C518.82 74.73 516.44 57.04 528.18 0C530.85 -12.96 544.09 0 560 0C630 0 630 0 700 0C711.39 0 712.72 -4.9 722.79 0C782.72 29.15 776.86 48.37 840 68.11C905.46 88.58 911.21 67.68 980 80.43C1051.21 93.63 1048.84 113.62 1120 120C1188.84 126.17 1190.56 116.36 1260 105.54C1330.56 94.54 1329.39 86.81 1400 76.36C1469.39 66.09 1494.55 43.44 1540 64.1C1564.55 75.26 1540 102.05 1540 140C1540 191.64 1568.99 230.54 1540 243.28C1498.99 261.31 1471.24 216.42 1400 201.54C1331.24 187.18 1329.89 193.99 1260 184.8C1189.89 175.58 1172.01 139.88 1120 164.71C1072.31 187.48 1071.29 218.8 1060.61 280C1049.02 346.44 1097.53 363.49 1075.45 420C1057.22 466.65 1029.36 486.32 980 486.32C922.2 486.32 915.24 458.75 861.13 420C845.24 408.62 855.7 386.06 840 386.06C807.8 386.06 803.15 404.21 765.33 420C733.15 433.43 734.09 442.05 700 444.5C631.43 449.42 629.2 443.82 560 434.74C535.87 431.57 536.91 426.5 513.33 420C466.91 407.21 459.95 420.86 420 396.17C346.7 350.86 286.83 332.7 286.83 280C286.83 233.25 358.34 197.27 420 197.27C465.67 197.27 469.22 232.69 501.49 280C539.22 335.31 527.49 402.5 560 402.5C594.44 402.5 635.38 340.48 635.38 280C635.38 223.23 600.15 221.94 560 168C548.05 151.94 534.73 158.73 531.18 140" stroke="rgba(82, 31, 22, 1)" stroke-width="2"></path>
        <path d="M1195.38 420C1210.77 385.75 1222.79 383.88 1260 371.54C1325.1 349.94 1337.62 337.88 1400 352.12C1443.75 362.11 1451.63 377.42 1472.26 420C1501.98 481.36 1521.89 518.94 1500.7 560C1485.76 588.94 1450.35 560 1400 560C1330 560 1330 560 1260 560C1217.68 560 1187.45 586.21 1175.35 560C1155.14 516.21 1168.44 479.98 1195.38 420" stroke="rgba(82, 31, 22, 1)" stroke-width="2"></path>
        <path d="M779.33 140C779.33 115.29 808.76 115.41 840 115.41C889.65 115.41 895.31 119.24 941.11 140C965.31 150.98 968.56 154.8 980 178.89C1001.8 224.8 998.53 228.55 1007.58 280C1019.74 349.11 1032.51 358.01 1022.42 420C1018.72 442.74 1001.94 449.47 980 449.47C954.31 449.47 945.96 442.74 927.17 420C875.96 358.01 883.59 350 840 280C840 280 840 280 840 280C809.66 210 779.33 197.59 779.33 140" stroke="rgba(82, 31, 22, 1)" stroke-width="2"></path>
        <path d="M1312.5 140C1312.5 128.25 1355.35 122.76 1400 116.14C1469.1 105.9 1483.56 96.65 1540 106.27C1553.56 108.58 1540 123.13 1540 140C1540 162.95 1557.11 183.08 1540 185.9C1487.11 194.62 1469.45 177.09 1400 163.08C1355.7 154.14 1312.5 151.72 1312.5 140" stroke="rgba(82, 31, 22, 1)" stroke-width="2"></path>
        <path d="M0 235.93C15.29 235.93 50.64 261.07 50.64 280C50.64 296.04 17.4 305.87 0 305.87C-7.92 305.87 0 292.93 0 280C0 257.97 -10.03 235.93 0 235.93" stroke="rgba(82, 31, 22, 1)" stroke-width="2"></path>
        <path d="M372.2 280C372.2 263.22 397.87 250.3 420 250.3C436.39 250.3 449.25 263.93 449.25 280C449.25 299.63 437.16 321.7 420 321.7C398.63 321.7 372.2 298.92 372.2 280" stroke="rgba(82, 31, 22, 1)" stroke-width="2"></path>
        <path d="M134.62 420C138.8 414.52 136.84 407.27 140 407.27C143.42 407.27 146.56 412.7 147.78 420C159.36 489.06 168.9 500.75 165.61 560C165.01 570.75 152.81 560 140 560C81.66 560 24.39 587.64 23.33 560C21.7 517.64 80.47 490.89 134.62 420" stroke="rgba(82, 31, 22, 1)" stroke-width="2"></path>
        <path d="M1292.67 420C1325.53 383.62 1350.14 387.47 1400 387.47C1421.12 387.47 1429.64 398.15 1434.62 420C1449.29 484.42 1452.82 505.34 1439.3 560C1435.51 575.34 1419.65 560 1400 560C1330 560 1330 560 1260 560C1258.37 560 1256.74 561.35 1256.74 560C1256.74 552.6 1257.79 551.12 1260 542.5C1275.75 481.12 1255.53 461.13 1292.67 420" stroke="rgba(82, 31, 22, 1)" stroke-width="2"></path>
    </g>
    <defs>
        <mask id="SvgjsMask1677">
            <rect width="1440" height="560" fill="#ffffff"></rect>
        </mask>
        <radialGradient cx="50%" cy="50%" r="772.53" gradientUnits="userSpaceOnUse" id="SvgjsRadialGradient1678">
            <stop stop-color="rgba(0, 0, 0, 1)" offset="0"></stop>
            <stop stop-color="rgba(52, 1, 1, 1)" offset="1"></stop>
        </radialGradient>
    </defs>
</svg>
